<svg width="288" height="160" viewBox="0 0 288 160" fill="none" xmlns="http://www.w3.org/2000/svg">
<mask id="mask0" mask-type="alpha" maskUnits="userSpaceOnUse" x="0" y="0" width="288" height="160">
<rect width="288" height="160" fill="white"/>
</mask>
<g mask="url(#mask0)">
<path fill-rule="evenodd" clip-rule="evenodd" d="M170.586 37.586C171.367 38.367 171.367 39.6334 170.586 40.4144L145.414 65.586C144.633 66.367 143.367 66.367 142.586 65.586L117.414 40.4144C116.633 39.6333 116.633 38.367 117.414 37.586L142.586 12.4144C143.367 11.6333 144.633 11.6334 145.414 12.4144L170.586 37.586ZM129.586 81.4144C130.367 80.6334 130.367 79.367 129.586 78.586L104.414 53.4144C103.633 52.6334 102.367 52.6334 101.586 53.4144L76.4142 78.586C75.6331 79.367 75.6331 80.6333 76.4142 81.4144L101.586 106.586C102.367 107.367 103.633 107.367 104.414 106.586L129.586 81.4144ZM211.586 78.586C212.367 79.367 212.367 80.6334 211.586 81.4144L186.414 106.586C185.633 107.367 184.367 107.367 183.586 106.586L158.414 81.4144C157.633 80.6333 157.633 79.367 158.414 78.586L183.586 53.4144C184.367 52.6334 185.633 52.6334 186.414 53.4144L211.586 78.586ZM170.586 119.586C171.367 120.367 171.367 121.633 170.586 122.414L145.414 147.586C144.633 148.367 143.367 148.367 142.586 147.586L117.414 122.414C116.633 121.633 116.633 120.367 117.414 119.586L142.586 94.4144C143.367 93.6334 144.633 93.6334 145.414 94.4144L170.586 119.586Z" fill="url(#paint0_linear)"/>
</g>
<defs>
<linearGradient id="paint0_linear" x1="144" y1="11.8286" x2="144" y2="148.172" gradientUnits="userSpaceOnUse">
<stop stop-color="#7B61FF" stop-opacity="0.8"/>
<stop offset="1" stop-color="#7B61FF"/>
</linearGradient>
</defs>
</svg>
