<svg width="288" height="160" viewBox="0 0 288 160" fill="none" xmlns="http://www.w3.org/2000/svg">
<mask id="mask0" mask-type="alpha" maskUnits="userSpaceOnUse" x="0" y="0" width="288" height="160">
<rect width="288" height="160" fill="white"/>
</mask>
<g mask="url(#mask0)">
<path fill-rule="evenodd" clip-rule="evenodd" d="M211.586 -3.41402C212.367 -2.63297 212.367 -1.36665 211.586 -0.5856L186.414 24.586C185.633 25.367 184.367 25.367 183.586 24.586L158.414 -0.585602C157.633 -1.36665 157.633 -2.63298 158.414 -3.41403L183.586 -28.5856C184.367 -29.3667 185.633 -29.3666 186.414 -28.5856L211.586 -3.41402ZM252.586 40.4144C253.367 39.6334 253.367 38.367 252.586 37.586L227.414 12.4144C226.633 11.6334 225.367 11.6334 224.586 12.4144L199.414 37.586C198.633 38.367 198.633 39.6333 199.414 40.4144L224.586 65.586C225.367 66.367 226.633 66.367 227.414 65.586L252.586 40.4144ZM293.586 78.586C294.367 79.367 294.367 80.6333 293.586 81.4144L268.414 106.586C267.633 107.367 266.367 107.367 265.586 106.586L240.414 81.4144C239.633 80.6333 239.633 79.367 240.414 78.586L265.586 53.4144C266.367 52.6333 267.633 52.6333 268.414 53.4144L293.586 78.586ZM252.586 119.586C253.367 120.367 253.367 121.633 252.586 122.414L227.414 147.586C226.633 148.367 225.367 148.367 224.586 147.586L199.414 122.414C198.633 121.633 198.633 120.367 199.414 119.586L224.586 94.4144C225.367 93.6333 226.633 93.6333 227.414 94.4144L252.586 119.586ZM293.586 -0.585598C294.367 -1.36665 294.367 -2.63297 293.586 -3.41402L268.414 -28.5856C267.633 -29.3666 266.367 -29.3666 265.586 -28.5856L240.414 -3.41403C239.633 -2.63298 239.633 -1.36665 240.414 -0.5856L265.586 24.586C266.367 25.367 267.633 25.367 268.414 24.586L293.586 -0.585598ZM334.586 37.586C335.367 38.367 335.367 39.6334 334.586 40.4144L309.414 65.586C308.633 66.367 307.367 66.367 306.586 65.586L281.414 40.4144C280.633 39.6333 280.633 38.367 281.414 37.586L306.586 12.4144C307.367 11.6334 308.633 11.6334 309.414 12.4144L334.586 37.586ZM334.586 122.414C335.367 121.633 335.367 120.367 334.586 119.586L309.414 94.4144C308.633 93.6333 307.367 93.6333 306.586 94.4144L281.414 119.586C280.633 120.367 280.633 121.633 281.414 122.414L306.586 147.586C307.367 148.367 308.633 148.367 309.414 147.586L334.586 122.414ZM293.586 160.586C294.367 161.367 294.367 162.633 293.586 163.414L268.414 188.586C267.633 189.367 266.367 189.367 265.586 188.586L240.414 163.414C239.633 162.633 239.633 161.367 240.414 160.586L265.586 135.414C266.367 134.633 267.633 134.633 268.414 135.414L293.586 160.586ZM211.586 163.414C212.367 162.633 212.367 161.367 211.586 160.586L186.414 135.414C185.633 134.633 184.367 134.633 183.586 135.414L158.414 160.586C157.633 161.367 157.633 162.633 158.414 163.414L183.586 188.586C184.367 189.367 185.633 189.367 186.414 188.586L211.586 163.414ZM129.586 160.586C130.367 161.367 130.367 162.633 129.586 163.414L104.414 188.586C103.633 189.367 102.367 189.367 101.586 188.586L76.4142 163.414C75.6331 162.633 75.6331 161.367 76.4142 160.586L101.586 135.414C102.367 134.633 103.633 134.633 104.414 135.414L129.586 160.586ZM88.5857 122.414C89.3668 121.633 89.3668 120.367 88.5857 119.586L63.4142 94.4144C62.6331 93.6333 61.3668 93.6333 60.5857 94.4144L35.4142 119.586C34.6331 120.367 34.6331 121.633 35.4142 122.414L60.5857 147.586C61.3668 148.367 62.6331 148.367 63.4142 147.586L88.5857 122.414ZM47.5857 160.586C48.3668 161.367 48.3668 162.633 47.5857 163.414L22.4142 188.586C21.6331 189.367 20.3668 189.367 19.5857 188.586L-5.58585 163.414C-6.36689 162.633 -6.36689 161.367 -5.58584 160.586L19.5857 135.414C20.3668 134.633 21.6331 134.633 22.4142 135.414L47.5857 160.586ZM129.586 -0.585598C130.367 -1.36665 130.367 -2.63297 129.586 -3.41402L104.414 -28.5856C103.633 -29.3666 102.367 -29.3666 101.586 -28.5856L76.4142 -3.41403C75.6331 -2.63298 75.6331 -1.36665 76.4142 -0.5856L101.586 24.586C102.367 25.367 103.633 25.367 104.414 24.586L129.586 -0.585598ZM88.5857 37.586C89.3668 38.367 89.3668 39.6334 88.5857 40.4144L63.4142 65.586C62.6331 66.367 61.3668 66.367 60.5857 65.586L35.4142 40.4144C34.6331 39.6333 34.6331 38.367 35.4142 37.586L60.5857 12.4144C61.3668 11.6334 62.6331 11.6334 63.4142 12.4144L88.5857 37.586ZM47.5857 -0.585598C48.3668 -1.36665 48.3668 -2.63297 47.5857 -3.41402L22.4142 -28.5856C21.6331 -29.3666 20.3668 -29.3666 19.5857 -28.5856L-5.58584 -3.41403C-6.36689 -2.63298 -6.36689 -1.36665 -5.58585 -0.5856L19.5857 24.586C20.3668 25.367 21.6331 25.367 22.4142 24.586L47.5857 -0.585598ZM6.58573 37.586C7.36678 38.367 7.36678 39.6334 6.58573 40.4144L-18.5858 65.586C-19.3669 66.367 -20.6332 66.367 -21.4143 65.586L-46.5858 40.4144C-47.3669 39.6334 -47.3669 38.367 -46.5858 37.586L-21.4143 12.4144C-20.6332 11.6334 -19.3669 11.6334 -18.5858 12.4144L6.58573 37.586ZM47.5857 81.4144C48.3668 80.6334 48.3668 79.367 47.5857 78.586L22.4142 53.4144C21.6331 52.6334 20.3668 52.6334 19.5857 53.4144L-5.58584 78.586C-6.36689 79.367 -6.36689 80.6334 -5.58585 81.4144L19.5857 106.586C20.3668 107.367 21.6331 107.367 22.4142 106.586L47.5857 81.4144ZM6.58573 119.586C7.36678 120.367 7.36678 121.633 6.58573 122.414L-18.5858 147.586C-19.3669 148.367 -20.6332 148.367 -21.4143 147.586L-46.5858 122.414C-47.3669 121.633 -47.3669 120.367 -46.5858 119.586L-21.4143 94.4144C-20.6332 93.6334 -19.3669 93.6334 -18.5858 94.4144L6.58573 119.586Z" fill="url(#paint0_linear)"/>
</g>
<defs>
<linearGradient id="paint0_linear" x1="160.052" y1="156" x2="160.052" y2="-5" gradientUnits="userSpaceOnUse">
<stop stop-color="#7B61FF" stop-opacity="0"/>
<stop offset="0.666667" stop-color="#7B61FF" stop-opacity="0.12"/>
</linearGradient>
</defs>
</svg>
