<svg width="288" height="160" viewBox="0 0 288 160" fill="none" xmlns="http://www.w3.org/2000/svg">
<mask id="mask0" mask-type="alpha" maskUnits="userSpaceOnUse" x="0" y="0" width="288" height="160">
<rect width="288" height="160" fill="white"/>
</mask>
<g mask="url(#mask0)">
<path d="M210.176 82.6115C211.736 81.0469 211.732 78.5142 210.167 76.9546L146.833 13.8239C145.268 12.2643 142.736 12.2683 141.176 13.8329L77.8239 77.3885C76.2643 78.9531 76.2684 81.4858 77.833 83.0454L141.167 146.176C142.732 147.736 145.264 147.732 146.824 146.167L210.176 82.6115Z" fill="url(#paint0_linear)"/>
<path fill-rule="evenodd" clip-rule="evenodd" d="M129 79C131.761 79 134 76.7614 134 74C134 71.2386 131.761 69 129 69C126.239 69 124 71.2386 124 74C124 76.7614 126.239 79 129 79ZM155.653 74.5106C154.954 74.8866 154.406 75.4097 154.04 76L151 73.8209C151.745 72.6198 152.795 71.6553 154.019 70.997C155.243 70.3389 156.615 70.0001 158 70C159.384 69.9999 160.756 70.3384 161.98 70.9962C163.205 71.6543 164.255 72.6185 165 73.8194L161.961 75.9993C161.594 75.4091 161.047 74.886 160.347 74.5101C159.647 74.134 158.837 73.9283 158 73.9283C157.163 73.9284 156.353 74.1343 155.653 74.5106ZM151.293 92.2513C153.51 90.992 155.52 89.1809 156.8 87L160 89C158.379 91.7625 156.046 93.9696 153.238 95.5647C150.43 97.1598 147.244 97.9997 144.001 98C140.758 98.0003 137.572 97.1611 134.763 95.5666C131.955 93.9721 129.622 91.7622 128 89L131.2 87C132.481 89.1807 134.49 90.994 136.708 92.2528C138.925 93.5116 141.44 94.1742 144.001 94.1739C146.561 94.1736 149.076 93.5106 151.293 92.2513Z" fill="white"/>
</g>
<defs>
<linearGradient id="paint0_linear" x1="62.3507" y1="161.649" x2="229.632" y2="-5.63215" gradientUnits="userSpaceOnUse">
<stop stop-color="#1DD286"/>
<stop offset="1" stop-color="#1CEDC7"/>
</linearGradient>
</defs>
</svg>
